<svg width="51" height="50" viewBox="0 0 51 50" fill="none" xmlns="http://www.w3.org/2000/svg">
<path d="M16.0569 0.312531C14.9825 1.05482 15.0411 -0.175816 15.0411 25.0034C15.0411 50.1827 14.9825 48.9521 16.0569 49.6944C16.6038 50.085 18.0103 50.1046 18.7135 49.7334C19.8855 49.1279 19.8269 50.5343 19.8269 24.8667V1.3283L19.1042 0.664143C18.4791 0.0976562 18.2251 -1.14441e-05 17.4242 -1.14441e-05C16.8968 -1.14441e-05 16.3108 0.136723 16.0569 0.312531Z" fill="#87CEEB"/>
<path d="M23.6947 8.79025C23.3627 8.98558 22.972 9.3372 22.8743 9.55207C22.6008 10.06 22.5813 39.5953 22.8548 40.318C23.265 41.4119 25.0035 41.9198 26.1756 41.3143C27.4257 40.6697 27.3476 41.6463 27.3476 25.0425C27.3476 11.3492 27.3085 9.90368 27.035 9.4544C26.3318 8.39957 24.8277 8.10656 23.6947 8.79025Z" fill="#87CEEB"/>
<path d="M38.521 9.06373L37.7982 9.72789L37.7396 24.6909C37.681 41.1971 37.6615 40.6892 38.8921 41.3143C39.8493 41.8222 41.0995 41.6073 41.8808 40.8455L42.4864 40.2399L42.545 25.2378L42.584 10.2358L42.1348 9.55208C41.2167 8.20424 39.7125 7.98936 38.521 9.06373Z" fill="#87CEEB"/>
<path d="M8.57535 12.9901C7.42285 13.6152 7.42285 13.6347 7.42285 24.9839C7.42285 36.3722 7.42285 36.4113 8.57535 36.9973C9.33718 37.4075 10.7241 37.388 11.3101 36.9973C12.2868 36.2941 12.3063 36.1378 12.3063 25.0034C12.3063 13.8105 12.3063 13.7128 11.271 13.0291C10.646 12.6189 9.27858 12.5994 8.57535 12.9901Z" fill="#87CEEB"/>
<path d="M31.5082 17.0727C30.1799 17.6782 30.1799 17.7173 30.1799 25.0034C30.1799 32.3482 30.1799 32.3482 31.5864 32.9538C32.5045 33.3249 33.4421 33.1491 34.243 32.4263L34.8681 31.8794L34.9267 25.2574C34.9462 20.2567 34.9071 18.5377 34.7313 18.1861C34.1453 17.0922 32.6412 16.5648 31.5082 17.0727Z" fill="#87CEEB"/>
<path d="M1.0353 21.4873C0.703222 21.6827 0.312543 22.0343 0.214873 22.2492C0.0976698 22.464 0 23.7337 0 25.0816C0 27.4843 0.019534 27.5429 0.546951 28.1484C1.58225 29.3009 3.69192 29.0861 4.39514 27.7382C4.80535 26.9373 4.80535 23.0696 4.39514 22.2687C3.80912 21.1357 2.20734 20.7646 1.0353 21.4873Z" fill="#87CEEB"/>
<path d="M46.4518 21.4092C45.5337 21.8976 45.3188 22.6008 45.3188 25.0035C45.3188 26.5662 45.397 27.328 45.6119 27.7382C46.3151 29.0861 48.4247 29.3009 49.46 28.1484C50.007 27.5429 50.007 27.5038 50.007 25.0425C50.007 23.1087 49.9484 22.464 49.6945 22.1124C49.0303 21.1553 47.5067 20.8232 46.4518 21.4092Z" fill="#87CEEB"/>
</svg>
